<svg width="480" height="480" viewBox="0 0 480 480" fill="none" xmlns="http://www.w3.org/2000/svg">
<rect width="480" height="480" fill="#0052C1"/>
<g filter="url(#filter0_i)">
<rect x="70" width="340" height="96" fill="#0052C1"/>
</g>
<path d="M125.152 126.6H130.24V149H125.824V134.824L125.184 136.776L120.096 149H116.384L111.296 136.776L110.656 134.824V149H106.272V126.6H111.328L117.728 141.032L118.208 142.344L118.72 141.032L125.152 126.6ZM141.397 132.424C143.701 132.424 145.525 133.16 146.869 134.632C148.234 136.083 148.917 138.163 148.917 140.872V142.152H137.621C137.685 143.24 138.069 144.125 138.773 144.808C139.477 145.469 140.394 145.8 141.525 145.8C143.21 145.8 144.298 145.171 144.789 143.912H148.821C147.754 147.539 145.279 149.352 141.397 149.352C138.986 149.352 137.034 148.584 135.541 147.048C134.069 145.491 133.333 143.443 133.333 140.904C133.333 138.408 134.079 136.381 135.573 134.824C137.087 133.224 139.029 132.424 141.397 132.424ZM137.653 139.272H144.725C144.703 138.248 144.383 137.427 143.765 136.808C143.146 136.189 142.325 135.88 141.301 135.88C140.298 135.88 139.466 136.189 138.805 136.808C138.143 137.427 137.759 138.248 137.653 139.272ZM160.424 132.424C162.109 132.424 163.4 132.957 164.296 134.024C165.213 135.091 165.672 136.573 165.672 138.472V149H161.48V139.368C161.48 137.427 160.712 136.456 159.176 136.456C158.301 136.456 157.597 136.808 157.064 137.512C156.552 138.195 156.296 139.165 156.296 140.424V149H152.168V132.776H155.72L156.04 134.888C156.914 133.245 158.376 132.424 160.424 132.424ZM170.592 128.84H174.784L174.752 132.776H178.464V136.552H174.72L174.656 143.112C174.656 143.965 174.805 144.573 175.104 144.936C175.424 145.277 175.979 145.448 176.768 145.448C177.387 145.448 177.952 145.373 178.464 145.224V148.872C177.824 149.107 176.949 149.224 175.84 149.224C174.005 149.224 172.651 148.819 171.776 148.008C170.901 147.176 170.475 145.875 170.496 144.104L170.56 136.552H167.904V132.776H170.56L170.592 128.84ZM187.581 132.424C189.586 132.424 191.154 132.936 192.285 133.96C193.437 134.963 194.013 136.424 194.013 138.344V149H190.461L190.205 147.016C189.181 148.573 187.634 149.352 185.565 149.352C184.093 149.352 182.898 148.925 181.981 148.072C181.085 147.219 180.637 146.088 180.637 144.68C180.637 143.251 181.064 142.152 181.917 141.384C182.77 140.616 184.018 140.093 185.661 139.816L189.853 139.048V138.44C189.853 136.797 189.096 135.976 187.581 135.976C186.877 135.976 186.29 136.179 185.821 136.584C185.373 136.968 185.149 137.48 185.149 138.12H181.117C181.224 136.413 181.864 135.037 183.037 133.992C184.21 132.947 185.725 132.424 187.581 132.424ZM189.853 142.312V141.832L186.621 142.504C185.405 142.781 184.797 143.389 184.797 144.328C184.797 144.819 184.957 145.213 185.277 145.512C185.618 145.789 186.088 145.928 186.685 145.928C187.816 145.928 188.68 145.437 189.277 144.456C189.661 143.859 189.853 143.144 189.853 142.312ZM197.905 125.64H202.065V149H197.905V125.64ZM120.256 155.6H124.672V178H120.256V168.464H110.656V178H106.272V155.6H110.656V164.336H120.256V155.6ZM135.866 161.424C138.17 161.424 139.994 162.16 141.338 163.632C142.703 165.083 143.386 167.163 143.386 169.872V171.152H132.09C132.154 172.24 132.538 173.125 133.242 173.808C133.946 174.469 134.863 174.8 135.994 174.8C137.679 174.8 138.767 174.171 139.258 172.912H143.29C142.223 176.539 139.748 178.352 135.866 178.352C133.455 178.352 131.503 177.584 130.01 176.048C128.538 174.491 127.802 172.443 127.802 169.904C127.802 167.408 128.548 165.381 130.042 163.824C131.556 162.224 133.498 161.424 135.866 161.424ZM132.122 168.272H139.194C139.172 167.248 138.852 166.427 138.234 165.808C137.615 165.189 136.794 164.88 135.77 164.88C134.767 164.88 133.935 165.189 133.274 165.808C132.612 166.427 132.228 167.248 132.122 168.272ZM152.653 161.424C154.658 161.424 156.226 161.936 157.357 162.96C158.509 163.963 159.085 165.424 159.085 167.344V178H155.533L155.277 176.016C154.253 177.573 152.706 178.352 150.637 178.352C149.165 178.352 147.97 177.925 147.053 177.072C146.157 176.219 145.709 175.088 145.709 173.68C145.709 172.251 146.135 171.152 146.989 170.384C147.842 169.616 149.09 169.093 150.733 168.816L154.925 168.048V167.44C154.925 165.797 154.167 164.976 152.653 164.976C151.949 164.976 151.362 165.179 150.893 165.584C150.445 165.968 150.221 166.48 150.221 167.12H146.189C146.295 165.413 146.935 164.037 148.109 162.992C149.282 161.947 150.797 161.424 152.653 161.424ZM154.925 171.312V170.832L151.693 171.504C150.477 171.781 149.869 172.389 149.869 173.328C149.869 173.819 150.029 174.213 150.349 174.512C150.69 174.789 151.159 174.928 151.757 174.928C152.887 174.928 153.751 174.437 154.349 173.456C154.733 172.859 154.925 172.144 154.925 171.312ZM162.976 154.64H167.136V178H162.976V154.64ZM172.338 157.84H176.53L176.498 161.776H180.21V165.552H176.466L176.402 172.112C176.402 172.965 176.551 173.573 176.85 173.936C177.17 174.277 177.724 174.448 178.514 174.448C179.132 174.448 179.698 174.373 180.21 174.224V177.872C179.57 178.107 178.695 178.224 177.586 178.224C175.751 178.224 174.396 177.819 173.522 177.008C172.647 176.176 172.22 174.875 172.242 173.104L172.306 165.552H169.65V161.776H172.306L172.338 157.84ZM183.311 154.64H187.439V163.472C188.356 162.107 189.732 161.424 191.567 161.424C193.252 161.424 194.543 161.957 195.439 163.024C196.356 164.091 196.815 165.573 196.815 167.472V178H192.623V168.368C192.623 166.427 191.855 165.456 190.319 165.456C189.444 165.456 188.74 165.808 188.207 166.512C187.695 167.195 187.439 168.165 187.439 169.424V178H183.311V154.64Z" fill="white"/>
<circle cx="78" cy="149" r="6" fill="#E9B730"/>
<defs>
<filter id="filter0_i" x="70" y="0" width="340" height="96" filterUnits="userSpaceOnUse" color-interpolation-filters="sRGB">
<feFlood flood-opacity="0" result="BackgroundImageFix"/>
<feBlend mode="normal" in="SourceGraphic" in2="BackgroundImageFix" result="shape"/>
<feColorMatrix in="SourceAlpha" type="matrix" values="0 0 0 0 0 0 0 0 0 0 0 0 0 0 0 0 0 0 127 0" result="hardAlpha"/>
<feOffset dy="-1"/>
<feComposite in2="hardAlpha" operator="arithmetic" k2="-1" k3="1"/>
<feColorMatrix type="matrix" values="0 0 0 0 1 0 0 0 0 1 0 0 0 0 1 0 0 0 1 0"/>
<feBlend mode="normal" in2="shape" result="effect1_innerShadow"/>
</filter>
</defs>
</svg>
