<svg width="360" height="360" viewBox="0 0 360 360" fill="none" xmlns="http://www.w3.org/2000/svg">
<rect width="360" height="360" fill="#C4E769"/>
<g filter="url(#filter0_i)">
<rect x="52.5" width="255" height="72" fill="#C4E769"/>
</g>
<path d="M80.2656 127V104.594H87.1875C89.5729 104.594 91.4792 105.25 92.9062 106.562C94.3438 107.875 95.0625 109.599 95.0625 111.734C95.0625 113.12 94.7188 114.339 94.0312 115.391C93.3542 116.443 92.3958 117.25 91.1562 117.812L96.0156 127H90.9844L86.6406 118.609H84.6562V127H80.2656ZM84.6562 114.719H87.1875C88.2292 114.719 89.0469 114.464 89.6406 113.953C90.2448 113.443 90.5469 112.703 90.5469 111.734C90.5469 110.745 90.2448 109.995 89.6406 109.484C89.0469 108.964 88.2292 108.703 87.1875 108.703H84.6562V114.719ZM98.3549 121.297V110.781H102.511V120.375C102.511 122.333 103.282 123.312 104.824 123.312C105.626 123.312 106.287 122.99 106.808 122.344C107.339 121.688 107.605 120.734 107.605 119.484V110.781H111.73V127H108.183L107.855 124.891C107.469 125.641 106.912 126.24 106.183 126.688C105.454 127.135 104.584 127.359 103.574 127.359C101.865 127.359 100.568 126.823 99.683 125.75C98.7976 124.667 98.3549 123.182 98.3549 121.297ZM115.944 127V110.781H119.507L119.819 112.891C120.215 112.151 120.788 111.557 121.538 111.109C122.288 110.651 123.179 110.422 124.21 110.422C125.908 110.422 127.205 110.964 128.1 112.047C129.007 113.12 129.46 114.594 129.46 116.469V127H125.257V117.375C125.257 116.427 125.059 115.703 124.663 115.203C124.277 114.703 123.71 114.453 122.96 114.453C122.116 114.453 121.423 114.792 120.882 115.469C120.35 116.146 120.085 117.13 120.085 118.422V127H115.944ZM133.408 127V110.781H136.971L137.283 112.891C137.679 112.151 138.252 111.557 139.002 111.109C139.752 110.651 140.643 110.422 141.674 110.422C143.372 110.422 144.669 110.964 145.565 112.047C146.471 113.12 146.924 114.594 146.924 116.469V127H142.721V117.375C142.721 116.427 142.523 115.703 142.127 115.203C141.742 114.703 141.174 114.453 140.424 114.453C139.58 114.453 138.888 114.792 138.346 115.469C137.815 116.146 137.549 117.13 137.549 118.422V127H133.408ZM150.466 106.016C150.466 105.328 150.711 104.745 151.201 104.266C151.69 103.786 152.284 103.547 152.982 103.547C153.67 103.547 154.263 103.786 154.763 104.266C155.263 104.745 155.513 105.328 155.513 106.016C155.513 106.714 155.263 107.297 154.763 107.766C154.274 108.234 153.68 108.469 152.982 108.469C152.274 108.469 151.675 108.234 151.185 107.766C150.706 107.297 150.466 106.714 150.466 106.016ZM150.904 127V110.781H155.076V127H150.904ZM159.306 127V110.781H162.868L163.181 112.891C163.576 112.151 164.149 111.557 164.899 111.109C165.649 110.651 166.54 110.422 167.571 110.422C169.269 110.422 170.566 110.964 171.462 112.047C172.368 113.12 172.821 114.594 172.821 116.469V127H168.618V117.375C168.618 116.427 168.42 115.703 168.024 115.203C167.639 114.703 167.071 114.453 166.321 114.453C165.478 114.453 164.785 114.792 164.243 115.469C163.712 116.146 163.446 117.13 163.446 118.422V127H159.306ZM175.692 122.906C175.692 121.552 176.244 120.411 177.348 119.484C176.598 118.536 176.223 117.438 176.223 116.188C176.223 114.51 176.838 113.13 178.067 112.047C179.306 110.964 180.879 110.422 182.785 110.422C183.577 110.422 184.358 110.542 185.129 110.781H191.27V114.297H188.864C189.082 114.974 189.192 115.604 189.192 116.188C189.192 117.823 188.593 119.172 187.395 120.234C186.197 121.286 184.66 121.812 182.785 121.812C181.765 121.812 180.869 121.677 180.098 121.406C179.848 121.729 179.723 122.12 179.723 122.578C179.723 122.995 179.864 123.323 180.145 123.562C180.437 123.802 180.838 123.922 181.348 123.922H185.16C186.848 123.922 188.155 124.323 189.082 125.125C190.009 125.917 190.473 127.073 190.473 128.594C190.473 130.385 189.827 131.771 188.535 132.75C187.244 133.74 185.499 134.234 183.301 134.234C180.905 134.234 179.077 133.802 177.817 132.938C176.567 132.083 175.942 130.849 175.942 129.234C175.942 128.047 176.489 127.099 177.582 126.391C177.041 126.026 176.588 125.536 176.223 124.922C175.869 124.307 175.692 123.635 175.692 122.906ZM180.004 128.922C180.004 129.641 180.301 130.188 180.895 130.562C181.489 130.938 182.301 131.125 183.332 131.125C184.301 131.125 185.056 130.932 185.598 130.547C186.14 130.161 186.41 129.599 186.41 128.859C186.41 128.266 186.202 127.818 185.785 127.516C185.379 127.214 184.817 127.062 184.098 127.062H181.676C181.187 127.125 180.785 127.318 180.473 127.641C180.16 127.974 180.004 128.401 180.004 128.922ZM180.332 116.188C180.332 116.938 180.556 117.552 181.004 118.031C181.452 118.51 182.035 118.75 182.754 118.75C183.473 118.75 184.051 118.51 184.489 118.031C184.937 117.552 185.16 116.938 185.16 116.188C185.16 115.406 184.937 114.776 184.489 114.297C184.051 113.807 183.473 113.562 182.754 113.562C182.025 113.562 181.437 113.807 180.989 114.297C180.551 114.776 180.332 115.406 180.332 116.188ZM204.616 120.922C204.616 120.286 204.694 119.698 204.85 119.156C205.006 118.615 205.204 118.151 205.444 117.766C205.683 117.38 205.996 117.005 206.381 116.641C206.767 116.276 207.126 115.979 207.46 115.75C207.803 115.51 208.22 115.25 208.71 114.969L208.803 114.938L208.288 114.359C206.986 112.901 206.335 111.396 206.335 109.844C206.335 108.188 206.907 106.833 208.053 105.781C209.21 104.719 210.772 104.188 212.741 104.188C214.637 104.188 216.204 104.682 217.444 105.672C218.683 106.661 219.303 108 219.303 109.688C219.303 110.323 219.22 110.906 219.053 111.438C218.897 111.969 218.704 112.422 218.475 112.797C218.246 113.172 217.928 113.542 217.522 113.906C217.116 114.26 216.741 114.552 216.397 114.781C216.053 115.01 215.616 115.276 215.085 115.578L215.038 115.609L218.366 119.156C218.366 119.146 218.392 119.062 218.444 118.906C218.756 117.844 218.84 116.672 218.694 115.391L222.663 115.281C222.808 116.812 222.746 118.234 222.475 119.547C222.236 120.578 221.881 121.536 221.413 122.422L225.694 127H220.038L218.694 125.594C217.027 126.812 215.053 127.422 212.772 127.422C210.178 127.422 208.168 126.833 206.741 125.656C205.324 124.479 204.616 122.901 204.616 120.922ZM209.1 120.797C209.1 121.766 209.449 122.495 210.147 122.984C210.845 123.464 211.772 123.703 212.928 123.703C214.178 123.703 215.225 123.385 216.069 122.75L211.366 117.688C210.616 118.094 210.048 118.542 209.663 119.031C209.288 119.521 209.1 120.109 209.1 120.797ZM210.663 109.875C210.663 110.042 210.689 110.214 210.741 110.391C210.793 110.568 210.835 110.714 210.866 110.828C210.907 110.932 211.001 111.083 211.147 111.281C211.293 111.479 211.387 111.604 211.428 111.656C211.47 111.698 211.595 111.839 211.803 112.078C212.022 112.318 212.142 112.448 212.163 112.469L212.491 112.828C212.522 112.807 212.642 112.74 212.85 112.625C213.058 112.51 213.183 112.438 213.225 112.406C213.267 112.375 213.376 112.307 213.553 112.203C213.73 112.089 213.845 112.01 213.897 111.969C213.949 111.917 214.043 111.833 214.178 111.719C214.324 111.604 214.418 111.51 214.46 111.438C214.501 111.365 214.564 111.266 214.647 111.141C214.741 111.016 214.803 110.896 214.835 110.781C214.866 110.667 214.897 110.536 214.928 110.391C214.96 110.245 214.975 110.094 214.975 109.938C214.975 109.344 214.777 108.854 214.381 108.469C213.986 108.083 213.47 107.891 212.835 107.891C212.22 107.891 211.704 108.078 211.288 108.453C210.871 108.818 210.663 109.292 210.663 109.875ZM79.1562 158.156H83.5938C83.6458 159.26 83.9688 160.104 84.5625 160.688C85.1562 161.26 86.0104 161.547 87.125 161.547C88.0417 161.547 88.7604 161.312 89.2812 160.844C89.8021 160.375 90.0625 159.766 90.0625 159.016C90.0625 158.276 89.7552 157.661 89.1406 157.172C88.526 156.672 87.5104 156.188 86.0938 155.719C83.9271 155.021 82.3125 154.151 81.25 153.109C80.1875 152.068 79.6562 150.656 79.6562 148.875C79.6562 146.885 80.2917 145.276 81.5625 144.047C82.8333 142.807 84.5573 142.188 86.7344 142.188C88.8698 142.188 90.5573 142.755 91.7969 143.891C93.0469 145.026 93.7188 146.688 93.8125 148.875H89.3594C89.3281 148 89.0625 147.318 88.5625 146.828C88.0625 146.339 87.4219 146.094 86.6406 146.094C85.849 146.094 85.2292 146.302 84.7812 146.719C84.3333 147.135 84.1094 147.724 84.1094 148.484C84.1094 148.901 84.1771 149.26 84.3125 149.562C84.4583 149.854 84.7135 150.125 85.0781 150.375C85.4531 150.625 85.8438 150.839 86.25 151.016C86.6667 151.193 87.2656 151.417 88.0469 151.688C90.401 152.479 92.0677 153.411 93.0469 154.484C94.026 155.547 94.5156 156.927 94.5156 158.625C94.5156 160.729 93.8125 162.391 92.4062 163.609C91.0104 164.818 89.2292 165.422 87.0625 165.422C84.5729 165.422 82.6458 164.76 81.2812 163.438C79.9271 162.115 79.2188 160.354 79.1562 158.156ZM97.6674 171.875V148.781H101.261L101.542 150.953C102.688 149.266 104.407 148.422 106.699 148.422C108.126 148.422 109.417 148.797 110.574 149.547C111.73 150.286 112.631 151.302 113.277 152.594C113.923 153.875 114.246 155.302 114.246 156.875C114.246 158.448 113.923 159.88 113.277 161.172C112.631 162.464 111.73 163.484 110.574 164.234C109.417 164.984 108.126 165.359 106.699 165.359C105.584 165.359 104.605 165.161 103.761 164.766C102.917 164.359 102.277 163.839 101.839 163.203V171.875H97.6674ZM101.746 157C101.756 158.354 102.173 159.438 102.996 160.25C103.818 161.052 104.766 161.453 105.839 161.453C106.996 161.453 107.964 161.031 108.746 160.188C109.537 159.344 109.933 158.24 109.933 156.875C109.933 155.51 109.542 154.411 108.761 153.578C107.99 152.745 107.016 152.328 105.839 152.328C104.746 152.328 103.787 152.734 102.964 153.547C102.152 154.349 101.746 155.438 101.746 156.812V157ZM116.913 144.016C116.913 143.328 117.158 142.745 117.647 142.266C118.137 141.786 118.731 141.547 119.429 141.547C120.116 141.547 120.71 141.786 121.21 142.266C121.71 142.745 121.96 143.328 121.96 144.016C121.96 144.714 121.71 145.297 121.21 145.766C120.72 146.234 120.126 146.469 119.429 146.469C118.72 146.469 118.121 146.234 117.632 145.766C117.152 145.297 116.913 144.714 116.913 144.016ZM117.35 165V148.781H121.522V165H117.35ZM125.752 165V148.781H129.315L129.627 150.891C130.023 150.151 130.596 149.557 131.346 149.109C132.096 148.651 132.986 148.422 134.018 148.422C135.716 148.422 137.013 148.964 137.908 150.047C138.815 151.12 139.268 152.594 139.268 154.469V165H135.065V155.375C135.065 154.427 134.867 153.703 134.471 153.203C134.085 152.703 133.518 152.453 132.768 152.453C131.924 152.453 131.231 152.792 130.69 153.469C130.158 154.146 129.893 155.13 129.893 156.422V165H125.752ZM143.216 165V148.781H146.779L147.091 150.891C147.487 150.151 148.06 149.557 148.81 149.109C149.56 148.651 150.451 148.422 151.482 148.422C153.18 148.422 154.477 148.964 155.373 150.047C156.279 151.12 156.732 152.594 156.732 154.469V165H152.529V155.375C152.529 154.427 152.331 153.703 151.935 153.203C151.55 152.703 150.982 152.453 150.232 152.453C149.388 152.453 148.696 152.792 148.154 153.469C147.623 154.146 147.357 155.13 147.357 156.422V165H143.216ZM160.274 144.016C160.274 143.328 160.519 142.745 161.009 142.266C161.498 141.786 162.092 141.547 162.79 141.547C163.478 141.547 164.071 141.786 164.571 142.266C165.071 142.745 165.321 143.328 165.321 144.016C165.321 144.714 165.071 145.297 164.571 145.766C164.082 146.234 163.488 146.469 162.79 146.469C162.082 146.469 161.483 146.234 160.993 145.766C160.514 145.297 160.274 144.714 160.274 144.016ZM160.712 165V148.781H164.884V165H160.712ZM169.114 165V148.781H172.676L172.989 150.891C173.384 150.151 173.957 149.557 174.707 149.109C175.457 148.651 176.348 148.422 177.379 148.422C179.077 148.422 180.374 148.964 181.27 150.047C182.176 151.12 182.629 152.594 182.629 154.469V165H178.426V155.375C178.426 154.427 178.228 153.703 177.832 153.203C177.447 152.703 176.879 152.453 176.129 152.453C175.285 152.453 174.593 152.792 174.051 153.469C173.52 154.146 173.254 155.13 173.254 156.422V165H169.114ZM185.5 160.906C185.5 159.552 186.052 158.411 187.156 157.484C186.406 156.536 186.031 155.438 186.031 154.188C186.031 152.51 186.646 151.13 187.875 150.047C189.114 148.964 190.687 148.422 192.594 148.422C193.385 148.422 194.166 148.542 194.937 148.781H201.078V152.297H198.672C198.89 152.974 199 153.604 199 154.188C199 155.823 198.401 157.172 197.203 158.234C196.005 159.286 194.469 159.812 192.594 159.812C191.573 159.812 190.677 159.677 189.906 159.406C189.656 159.729 189.531 160.12 189.531 160.578C189.531 160.995 189.672 161.323 189.953 161.562C190.245 161.802 190.646 161.922 191.156 161.922H194.969C196.656 161.922 197.963 162.323 198.89 163.125C199.817 163.917 200.281 165.073 200.281 166.594C200.281 168.385 199.635 169.771 198.344 170.75C197.052 171.74 195.307 172.234 193.109 172.234C190.713 172.234 188.885 171.802 187.625 170.938C186.375 170.083 185.75 168.849 185.75 167.234C185.75 166.047 186.297 165.099 187.39 164.391C186.849 164.026 186.396 163.536 186.031 162.922C185.677 162.307 185.5 161.635 185.5 160.906ZM189.812 166.922C189.812 167.641 190.109 168.188 190.703 168.562C191.297 168.938 192.109 169.125 193.14 169.125C194.109 169.125 194.864 168.932 195.406 168.547C195.948 168.161 196.219 167.599 196.219 166.859C196.219 166.266 196.01 165.818 195.594 165.516C195.187 165.214 194.625 165.062 193.906 165.062H191.484C190.995 165.125 190.594 165.318 190.281 165.641C189.969 165.974 189.812 166.401 189.812 166.922ZM190.14 154.188C190.14 154.938 190.364 155.552 190.812 156.031C191.26 156.51 191.844 156.75 192.562 156.75C193.281 156.75 193.859 156.51 194.297 156.031C194.745 155.552 194.969 154.938 194.969 154.188C194.969 153.406 194.745 152.776 194.297 152.297C193.859 151.807 193.281 151.562 192.562 151.562C191.833 151.562 191.245 151.807 190.797 152.297C190.359 152.776 190.14 153.406 190.14 154.188Z" fill="white"/>
<circle cx="58.5" cy="111.75" r="4.5" fill="#E9B730"/>
<defs>
<filter id="filter0_i" x="52.5" y="0" width="255" height="72" filterUnits="userSpaceOnUse" color-interpolation-filters="sRGB">
<feFlood flood-opacity="0" result="BackgroundImageFix"/>
<feBlend mode="normal" in="SourceGraphic" in2="BackgroundImageFix" result="shape"/>
<feColorMatrix in="SourceAlpha" type="matrix" values="0 0 0 0 0 0 0 0 0 0 0 0 0 0 0 0 0 0 127 0" result="hardAlpha"/>
<feOffset dy="-1"/>
<feComposite in2="hardAlpha" operator="arithmetic" k2="-1" k3="1"/>
<feColorMatrix type="matrix" values="0 0 0 0 1 0 0 0 0 1 0 0 0 0 1 0 0 0 1 0"/>
<feBlend mode="normal" in2="shape" result="effect1_innerShadow"/>
</filter>
</defs>
</svg>
