<svg width="480" height="480" viewBox="0 0 480 480" fill="none" xmlns="http://www.w3.org/2000/svg">
<rect width="480" height="480" fill="#DEE1FF"/>
<g filter="url(#filter0_i)">
<rect x="70" width="340" height="96" fill="#DEE1FF"/>
</g>
<path d="M105.188 146.766C105.188 144.557 105.661 142.573 106.609 140.812C107.557 139.052 108.885 137.677 110.594 136.688C112.302 135.688 114.234 135.188 116.391 135.188C119.141 135.188 121.385 135.875 123.125 137.25C124.865 138.615 126.042 140.474 126.656 142.828H121.828C120.974 140.464 119.161 139.281 116.391 139.281C114.422 139.281 112.823 139.984 111.594 141.391C110.375 142.797 109.766 144.589 109.766 146.766C109.766 148.964 110.38 150.771 111.609 152.188C112.839 153.604 114.443 154.312 116.422 154.312C117.922 154.312 119.141 153.979 120.078 153.312C121.026 152.646 121.703 151.734 122.109 150.578H126.75C126.125 153.078 124.948 155.01 123.219 156.375C121.49 157.74 119.224 158.422 116.422 158.422C114.255 158.422 112.312 157.922 110.594 156.922C108.885 155.911 107.557 154.521 106.609 152.75C105.661 150.979 105.188 148.984 105.188 146.766ZM129.667 158V141.781H133.261L133.636 144.375C133.938 143.573 134.48 142.911 135.261 142.391C136.053 141.87 137.089 141.609 138.371 141.609V145.781C137.048 145.781 135.975 146.099 135.152 146.734C134.339 147.38 133.902 148.385 133.839 149.75V158H129.667ZM139.772 149.875C139.772 147.385 140.569 145.354 142.163 143.781C143.767 142.208 145.793 141.422 148.241 141.422C150.71 141.422 152.751 142.208 154.366 143.781C155.981 145.354 156.788 147.385 156.788 149.875C156.788 151.521 156.413 152.995 155.663 154.297C154.923 155.589 153.902 156.589 152.6 157.297C151.309 158.005 149.856 158.359 148.241 158.359C145.793 158.359 143.767 157.573 142.163 156C140.569 154.417 139.772 152.375 139.772 149.875ZM144.054 149.875C144.054 151.219 144.444 152.333 145.225 153.219C146.017 154.104 147.033 154.547 148.272 154.547C149.522 154.547 150.533 154.104 151.304 153.219C152.085 152.333 152.475 151.219 152.475 149.875C152.475 148.521 152.085 147.406 151.304 146.531C150.533 145.646 149.522 145.203 148.272 145.203C147.033 145.203 146.017 145.646 145.225 146.531C144.444 147.406 144.054 148.521 144.054 149.875ZM158.705 153.078H162.799C162.809 153.724 163.018 154.219 163.424 154.562C163.841 154.896 164.408 155.062 165.127 155.062C165.763 155.062 166.257 154.927 166.611 154.656C166.966 154.375 167.143 153.995 167.143 153.516C167.143 152.995 166.94 152.583 166.533 152.281C166.138 151.979 165.361 151.719 164.205 151.5C162.434 151.198 161.127 150.656 160.283 149.875C159.44 149.094 159.018 148.036 159.018 146.703C159.018 145.203 159.539 143.948 160.58 142.938C161.622 141.927 163.096 141.422 165.002 141.422C166.721 141.422 168.127 141.896 169.221 142.844C170.315 143.781 170.893 145.016 170.955 146.547H166.83C166.799 145.307 166.179 144.688 164.971 144.688C164.398 144.688 163.955 144.833 163.643 145.125C163.33 145.417 163.174 145.802 163.174 146.281C163.174 146.792 163.372 147.182 163.768 147.453C164.174 147.724 164.929 147.953 166.033 148.141C167.94 148.464 169.294 149.026 170.096 149.828C170.898 150.62 171.299 151.703 171.299 153.078C171.299 153.974 171.132 154.766 170.799 155.453C170.466 156.141 170.007 156.693 169.424 157.109C168.841 157.526 168.179 157.839 167.44 158.047C166.7 158.255 165.898 158.359 165.033 158.359C163.065 158.359 161.528 157.885 160.424 156.938C159.33 155.99 158.757 154.703 158.705 153.078ZM173.232 153.078H177.326C177.336 153.724 177.545 154.219 177.951 154.562C178.367 154.896 178.935 155.062 179.654 155.062C180.289 155.062 180.784 154.927 181.138 154.656C181.492 154.375 181.67 153.995 181.67 153.516C181.67 152.995 181.466 152.583 181.06 152.281C180.664 151.979 179.888 151.719 178.732 151.5C176.961 151.198 175.654 150.656 174.81 149.875C173.966 149.094 173.545 148.036 173.545 146.703C173.545 145.203 174.065 143.948 175.107 142.938C176.149 141.927 177.623 141.422 179.529 141.422C181.248 141.422 182.654 141.896 183.748 142.844C184.841 143.781 185.42 145.016 185.482 146.547H181.357C181.326 145.307 180.706 144.688 179.498 144.688C178.925 144.688 178.482 144.833 178.17 145.125C177.857 145.417 177.701 145.802 177.701 146.281C177.701 146.792 177.899 147.182 178.295 147.453C178.701 147.724 179.456 147.953 180.56 148.141C182.466 148.464 183.821 149.026 184.623 149.828C185.425 150.62 185.826 151.703 185.826 153.078C185.826 153.974 185.659 154.766 185.326 155.453C184.992 156.141 184.534 156.693 183.951 157.109C183.367 157.526 182.706 157.839 181.966 158.047C181.227 158.255 180.425 158.359 179.56 158.359C177.591 158.359 176.055 157.885 174.951 156.938C173.857 155.99 173.284 154.703 173.232 153.078ZM187.149 145.547V141.781H189.774V140.078C189.774 138.172 190.264 136.729 191.243 135.75C192.222 134.771 193.66 134.281 195.556 134.281C196.149 134.281 196.78 134.38 197.446 134.578V138.281C196.894 138.052 196.342 137.938 195.79 137.938C195.207 137.938 194.754 138.13 194.431 138.516C194.118 138.891 193.962 139.443 193.962 140.172V141.781H197.446V145.547H193.962V158H189.774V145.547H187.149ZM199.681 137.016C199.681 136.328 199.925 135.745 200.415 135.266C200.905 134.786 201.504 134.547 202.212 134.547C202.899 134.547 203.493 134.786 203.993 135.266C204.493 135.745 204.743 136.328 204.743 137.016C204.743 137.714 204.493 138.297 203.993 138.766C203.504 139.234 202.91 139.469 202.212 139.469C201.504 139.469 200.905 139.234 200.415 138.766C199.925 138.297 199.681 137.714 199.681 137.016ZM200.134 158V141.781H204.29V158H200.134ZM206.832 145.547V141.781H209.489L209.52 137.844H213.707L213.676 141.781H217.395V145.547H213.645L213.582 152.109C213.582 152.953 213.739 153.557 214.051 153.922C214.364 154.276 214.91 154.453 215.692 154.453C216.265 154.453 216.832 154.375 217.395 154.219V157.875C216.77 158.104 215.895 158.219 214.77 158.219C212.947 158.219 211.598 157.818 210.723 157.016C209.848 156.214 209.416 154.911 209.426 153.109L209.489 145.547H206.832Z" fill="white"/>
<circle cx="78" cy="149" r="6" fill="#E9B730"/>
<defs>
<filter id="filter0_i" x="70" y="0" width="340" height="96" filterUnits="userSpaceOnUse" color-interpolation-filters="sRGB">
<feFlood flood-opacity="0" result="BackgroundImageFix"/>
<feBlend mode="normal" in="SourceGraphic" in2="BackgroundImageFix" result="shape"/>
<feColorMatrix in="SourceAlpha" type="matrix" values="0 0 0 0 0 0 0 0 0 0 0 0 0 0 0 0 0 0 127 0" result="hardAlpha"/>
<feOffset dy="-1"/>
<feComposite in2="hardAlpha" operator="arithmetic" k2="-1" k3="1"/>
<feColorMatrix type="matrix" values="0 0 0 0 1 0 0 0 0 1 0 0 0 0 1 0 0 0 1 0"/>
<feBlend mode="normal" in2="shape" result="effect1_innerShadow"/>
</filter>
</defs>
</svg>
