<svg width="480" height="480" viewBox="0 0 480 480" fill="none" xmlns="http://www.w3.org/2000/svg">
<rect width="480" height="480" fill="#62D0DF"/>
<g filter="url(#filter0_i)">
<rect x="70" width="340" height="96" fill="#62D0DF"/>
</g>
<path d="M105.188 146.766C105.188 144.557 105.661 142.573 106.609 140.812C107.557 139.052 108.885 137.677 110.594 136.688C112.302 135.688 114.234 135.188 116.391 135.188C119.141 135.188 121.385 135.875 123.125 137.25C124.865 138.615 126.042 140.474 126.656 142.828H121.828C120.974 140.464 119.125 139.281 116.281 139.281C114.354 139.281 112.786 139.984 111.578 141.391C110.37 142.797 109.766 144.589 109.766 146.766C109.766 148.974 110.38 150.786 111.609 152.203C112.849 153.609 114.474 154.312 116.484 154.312C118.12 154.312 119.438 153.938 120.438 153.188C121.448 152.438 122.005 151.375 122.109 150H116.766V145.906H126.812V147.859C126.812 150.057 126.375 151.958 125.5 153.562C124.635 155.167 123.427 156.38 121.875 157.203C120.333 158.016 118.536 158.422 116.484 158.422C114.297 158.422 112.339 157.922 110.609 156.922C108.891 155.911 107.557 154.521 106.609 152.75C105.661 150.979 105.188 148.984 105.188 146.766ZM128.527 141.781H133.011L136.183 151.734L136.496 153.141L136.824 151.734L139.996 141.781H144.496L136.152 164.875H131.824L134.292 157.812L128.527 141.781ZM146.944 158V141.781H150.507L150.819 143.891C151.215 143.161 151.783 142.568 152.522 142.109C153.272 141.651 154.147 141.422 155.147 141.422C157.429 141.422 158.975 142.37 159.788 144.266C160.205 143.443 160.814 142.766 161.616 142.234C162.429 141.693 163.376 141.422 164.46 141.422C166.147 141.422 167.429 141.958 168.304 143.031C169.189 144.104 169.632 145.583 169.632 147.469V158H165.475V148.375C165.475 146.427 164.72 145.453 163.21 145.453C162.397 145.453 161.725 145.776 161.194 146.422C160.663 147.068 160.382 148.005 160.35 149.234V158H156.194V148.375C156.194 147.427 156.001 146.703 155.616 146.203C155.241 145.703 154.679 145.453 153.929 145.453C153.085 145.453 152.397 145.792 151.866 146.469C151.345 147.146 151.085 148.13 151.085 149.422V158H146.944ZM173.596 158V141.781H177.158L177.471 143.891C177.867 143.151 178.44 142.557 179.19 142.109C179.94 141.651 180.83 141.422 181.862 141.422C183.559 141.422 184.856 141.964 185.752 143.047C186.658 144.12 187.112 145.594 187.112 147.469V158H182.908V148.375C182.908 147.427 182.71 146.703 182.315 146.203C181.929 145.703 181.362 145.453 180.612 145.453C179.768 145.453 179.075 145.792 178.533 146.469C178.002 147.146 177.737 148.13 177.737 149.422V158H173.596ZM190.138 153.688C190.138 152.917 190.258 152.245 190.498 151.672C190.748 151.089 191.107 150.609 191.576 150.234C192.045 149.859 192.565 149.562 193.138 149.344C193.722 149.115 194.393 148.938 195.154 148.812L199.357 148.047V147.438C199.357 146.646 199.159 146.036 198.763 145.609C198.378 145.182 197.815 144.969 197.076 144.969C196.378 144.969 195.8 145.167 195.341 145.562C194.883 145.958 194.654 146.479 194.654 147.125H190.623C190.716 145.438 191.341 144.068 192.498 143.016C193.664 141.953 195.19 141.422 197.076 141.422C199.055 141.422 200.623 141.927 201.779 142.938C202.935 143.938 203.513 145.406 203.513 147.344V158H199.966L199.701 156.016C198.68 157.578 197.133 158.359 195.06 158.359C193.602 158.359 192.414 157.938 191.498 157.094C190.591 156.25 190.138 155.115 190.138 153.688ZM194.295 153.328C194.295 153.818 194.461 154.208 194.795 154.5C195.128 154.781 195.591 154.922 196.185 154.922C196.706 154.922 197.196 154.797 197.654 154.547C198.123 154.286 198.498 153.922 198.779 153.453C199.164 152.87 199.357 152.156 199.357 151.312V150.828L196.123 151.5C195.529 151.635 195.076 151.844 194.763 152.125C194.451 152.406 194.295 152.807 194.295 153.328ZM206.228 153.078H210.321C210.332 153.724 210.54 154.219 210.946 154.562C211.363 154.896 211.931 155.062 212.649 155.062C213.285 155.062 213.78 154.927 214.134 154.656C214.488 154.375 214.665 153.995 214.665 153.516C214.665 152.995 214.462 152.583 214.056 152.281C213.66 151.979 212.884 151.719 211.728 151.5C209.957 151.198 208.649 150.656 207.806 149.875C206.962 149.094 206.54 148.036 206.54 146.703C206.54 145.203 207.061 143.948 208.103 142.938C209.144 141.927 210.618 141.422 212.524 141.422C214.243 141.422 215.649 141.896 216.743 142.844C217.837 143.781 218.415 145.016 218.478 146.547H214.353C214.321 145.307 213.701 144.688 212.493 144.688C211.92 144.688 211.478 144.833 211.165 145.125C210.853 145.417 210.696 145.802 210.696 146.281C210.696 146.792 210.894 147.182 211.29 147.453C211.696 147.724 212.451 147.953 213.556 148.141C215.462 148.464 216.816 149.026 217.618 149.828C218.42 150.62 218.821 151.703 218.821 153.078C218.821 153.974 218.655 154.766 218.321 155.453C217.988 156.141 217.53 156.693 216.946 157.109C216.363 157.526 215.701 157.839 214.962 158.047C214.222 158.255 213.42 158.359 212.556 158.359C210.587 158.359 209.05 157.885 207.946 156.938C206.853 155.99 206.28 154.703 206.228 153.078ZM220.176 145.547V141.781H222.832L222.864 137.844H227.051L227.02 141.781H230.739V145.547H226.989L226.926 152.109C226.926 152.953 227.082 153.557 227.395 153.922C227.707 154.276 228.254 154.453 229.035 154.453C229.608 154.453 230.176 154.375 230.739 154.219V157.875C230.114 158.104 229.239 158.219 228.114 158.219C226.291 158.219 224.942 157.818 224.067 157.016C223.192 156.214 222.759 154.911 222.77 153.109L222.832 145.547H220.176ZM233.422 137.016C233.422 136.328 233.666 135.745 234.156 135.266C234.646 134.786 235.239 134.547 235.937 134.547C236.625 134.547 237.219 134.786 237.719 135.266C238.219 135.745 238.469 136.328 238.469 137.016C238.469 137.714 238.219 138.297 237.719 138.766C237.229 139.234 236.635 139.469 235.937 139.469C235.229 139.469 234.63 139.234 234.14 138.766C233.661 138.297 233.422 137.714 233.422 137.016ZM233.859 158V141.781H238.031V158H233.859ZM241.12 149.906C241.12 147.458 241.881 145.432 243.402 143.828C244.933 142.224 246.881 141.422 249.245 141.422C251.224 141.422 252.891 141.943 254.245 142.984C255.61 144.016 256.438 145.521 256.73 147.5H252.698C252.459 146.771 252.042 146.208 251.448 145.812C250.855 145.406 250.152 145.203 249.339 145.203C248.214 145.203 247.277 145.646 246.527 146.531C245.777 147.417 245.402 148.542 245.402 149.906C245.402 151.26 245.777 152.375 246.527 153.25C247.277 154.115 248.245 154.547 249.433 154.547C250.245 154.547 250.948 154.339 251.542 153.922C252.136 153.495 252.532 152.943 252.73 152.266H256.792C256.417 154.224 255.547 155.729 254.183 156.781C252.829 157.833 251.183 158.359 249.245 158.359C246.87 158.359 244.922 157.578 243.402 156.016C241.881 154.443 241.12 152.406 241.12 149.906ZM258.741 153.078H262.835C262.845 153.724 263.053 154.219 263.46 154.562C263.876 154.896 264.444 155.062 265.163 155.062C265.798 155.062 266.293 154.927 266.647 154.656C267.001 154.375 267.178 153.995 267.178 153.516C267.178 152.995 266.975 152.583 266.569 152.281C266.173 151.979 265.397 151.719 264.241 151.5C262.47 151.198 261.163 150.656 260.319 149.875C259.475 149.094 259.053 148.036 259.053 146.703C259.053 145.203 259.574 143.948 260.616 142.938C261.657 141.927 263.131 141.422 265.038 141.422C266.756 141.422 268.163 141.896 269.256 142.844C270.35 143.781 270.928 145.016 270.991 146.547H266.866C266.835 145.307 266.215 144.688 265.006 144.688C264.433 144.688 263.991 144.833 263.678 145.125C263.366 145.417 263.21 145.802 263.21 146.281C263.21 146.792 263.407 147.182 263.803 147.453C264.21 147.724 264.965 147.953 266.069 148.141C267.975 148.464 269.329 149.026 270.131 149.828C270.933 150.62 271.335 151.703 271.335 153.078C271.335 153.974 271.168 154.766 270.835 155.453C270.501 156.141 270.043 156.693 269.46 157.109C268.876 157.526 268.215 157.839 267.475 158.047C266.736 158.255 265.933 158.359 265.069 158.359C263.1 158.359 261.564 157.885 260.46 156.938C259.366 155.99 258.793 154.703 258.741 153.078Z" fill="white"/>
<circle cx="78" cy="149" r="6" fill="#E9B730"/>
<defs>
<filter id="filter0_i" x="70" y="0" width="340" height="96" filterUnits="userSpaceOnUse" color-interpolation-filters="sRGB">
<feFlood flood-opacity="0" result="BackgroundImageFix"/>
<feBlend mode="normal" in="SourceGraphic" in2="BackgroundImageFix" result="shape"/>
<feColorMatrix in="SourceAlpha" type="matrix" values="0 0 0 0 0 0 0 0 0 0 0 0 0 0 0 0 0 0 127 0" result="hardAlpha"/>
<feOffset dy="-1"/>
<feComposite in2="hardAlpha" operator="arithmetic" k2="-1" k3="1"/>
<feColorMatrix type="matrix" values="0 0 0 0 1 0 0 0 0 1 0 0 0 0 1 0 0 0 1 0"/>
<feBlend mode="normal" in2="shape" result="effect1_innerShadow"/>
</filter>
</defs>
</svg>
