<svg width="102" height="19" viewBox="0 0 102 19" fill="none" xmlns="http://www.w3.org/2000/svg">
<path d="M0.264 1.2H14.496V4.272H9.024V18H5.736V4.272H0.264V1.2ZM15.5816 0.48H18.6776V7.104C19.3656 6.08 20.3976 5.568 21.7736 5.568C23.0376 5.568 24.0056 5.968 24.6776 6.768C25.3656 7.568 25.7096 8.68 25.7096 10.104V18H22.5656V10.776C22.5656 9.32 21.9896 8.592 20.8376 8.592C20.1816 8.592 19.6536 8.856 19.2536 9.384C18.8696 9.896 18.6776 10.624 18.6776 11.568V18H15.5816V0.48ZM34.5598 5.712V8.832C33.5678 8.832 32.7598 9.072 32.1358 9.552C31.5278 10.032 31.1998 10.784 31.1518 11.808V18H28.0318V5.832H30.7198L31.0078 7.776C31.5198 6.4 32.7038 5.712 34.5598 5.712ZM36.0272 5.832H39.1472V18H36.0272V5.832ZM37.5872 0.407999C38.0992 0.407999 38.5392 0.591999 38.9072 0.959999C39.2912 1.312 39.4832 1.744 39.4832 2.256C39.4832 2.784 39.2992 3.224 38.9312 3.576C38.5632 3.928 38.1152 4.104 37.5872 4.104C37.0592 4.104 36.6112 3.928 36.2432 3.576C35.8752 3.224 35.6912 2.784 35.6912 2.256C35.6912 1.744 35.8752 1.312 36.2432 0.959999C36.6112 0.591999 37.0592 0.407999 37.5872 0.407999ZM48.7839 5.832H52.1679L47.7519 18H44.5839L40.1919 5.832H43.5519L45.9279 13.296L46.1679 14.352L46.4079 13.296L48.7839 5.832ZM58.1166 5.568C59.8446 5.568 61.2126 6.12 62.2206 7.224C63.2446 8.312 63.7566 9.872 63.7566 11.904V12.864H55.2846C55.3326 13.68 55.6206 14.344 56.1486 14.856C56.6766 15.352 57.3646 15.6 58.2126 15.6C59.4766 15.6 60.2926 15.128 60.6606 14.184H63.6846C62.8846 16.904 61.0286 18.264 58.1166 18.264C56.3086 18.264 54.8446 17.688 53.7246 16.536C52.6206 15.368 52.0686 13.832 52.0686 11.928C52.0686 10.056 52.6286 8.536 53.7486 7.368C54.8846 6.168 56.3406 5.568 58.1166 5.568ZM55.3086 10.704H60.6126C60.5966 9.936 60.3566 9.32 59.8926 8.856C59.4286 8.392 58.8126 8.16 58.0446 8.16C57.2926 8.16 56.6686 8.392 56.1726 8.856C55.6766 9.32 55.3886 9.936 55.3086 10.704ZM66.2188 2.88H69.3628L69.3388 5.832H72.1228V8.664H69.3148L69.2668 13.584C69.2668 14.224 69.3788 14.68 69.6028 14.952C69.8428 15.208 70.2588 15.336 70.8508 15.336C71.3148 15.336 71.7388 15.28 72.1228 15.168V17.904C71.6428 18.08 70.9868 18.168 70.1548 18.168C68.7788 18.168 67.7628 17.864 67.1068 17.256C66.4508 16.632 66.1308 15.656 66.1468 14.328L66.1948 8.664H64.2028V5.832H66.1948L66.2188 2.88ZM78.2646 5.568C79.7686 5.568 80.9446 5.952 81.7926 6.72C82.6566 7.472 83.0886 8.568 83.0886 10.008V18H80.4246L80.2326 16.512C79.4646 17.68 78.3046 18.264 76.7526 18.264C75.6486 18.264 74.7526 17.944 74.0646 17.304C73.3926 16.664 73.0566 15.816 73.0566 14.76C73.0566 13.688 73.3766 12.864 74.0166 12.288C74.6566 11.712 75.5926 11.32 76.8246 11.112L79.9686 10.536V10.08C79.9686 8.848 79.4006 8.232 78.2646 8.232C77.7366 8.232 77.2966 8.384 76.9446 8.688C76.6086 8.976 76.4406 9.36 76.4406 9.84H73.4166C73.4966 8.56 73.9766 7.528 74.8566 6.744C75.7366 5.96 76.8726 5.568 78.2646 5.568ZM79.9686 12.984V12.624L77.5446 13.128C76.6326 13.336 76.1766 13.792 76.1766 14.496C76.1766 14.864 76.2966 15.16 76.5366 15.384C76.7926 15.592 77.1446 15.696 77.5926 15.696C78.4406 15.696 79.0886 15.328 79.5366 14.592C79.8246 14.144 79.9686 13.608 79.9686 12.984ZM85.3116 0.48H88.4316V18H85.3116V0.48ZM90.9643 0.48H94.0843V10.752L97.6363 5.832H101.356L97.7803 10.944L101.98 18H98.4283L95.5963 13.344L94.0843 15.264V18H90.9643V0.48Z" fill="#62D0DF"/>
</svg>
