<svg width="360" height="360" viewBox="0 0 360 360" fill="none" xmlns="http://www.w3.org/2000/svg">
<rect width="360" height="360" fill="#FFE2DE"/>
<g filter="url(#filter0_i)">
<rect x="52.5" width="255" height="72" fill="#FFE2DE"/>
</g>
<path d="M78.4844 104.594H83.125L87.3438 118.875L87.7031 120.5L87.9844 118.875L92.0156 104.594H96.0469L100.109 118.875L100.375 120.5L100.719 118.875L104.938 104.594H109.578L102.766 127H98.125L94.3594 114.141L94.0312 112.594L93.75 114.141L89.9375 127H85.2969L78.4844 104.594ZM108.871 118.906C108.871 116.438 109.615 114.406 111.105 112.812C112.594 111.219 114.537 110.422 116.933 110.422C118.016 110.422 119.011 110.594 119.917 110.938C120.824 111.281 121.615 111.797 122.292 112.484C122.969 113.161 123.496 114.047 123.871 115.141C124.256 116.224 124.449 117.469 124.449 118.875V120.156H113.152C113.214 121.24 113.6 122.12 114.308 122.797C115.016 123.464 115.933 123.797 117.058 123.797C117.86 123.797 118.548 123.635 119.121 123.312C119.693 122.979 120.094 122.51 120.324 121.906H124.355C123.855 123.646 122.975 124.99 121.714 125.938C120.464 126.885 118.871 127.359 116.933 127.359C114.527 127.359 112.579 126.589 111.089 125.047C109.61 123.505 108.871 121.458 108.871 118.906ZM113.183 117.266H120.261C120.24 116.245 119.917 115.427 119.292 114.812C118.678 114.188 117.86 113.875 116.839 113.875C115.818 113.875 114.975 114.188 114.308 114.812C113.652 115.438 113.277 116.255 113.183 117.266ZM127.288 106.016C127.288 105.328 127.533 104.745 128.022 104.266C128.512 103.786 129.106 103.547 129.804 103.547C130.491 103.547 131.085 103.786 131.585 104.266C132.085 104.745 132.335 105.328 132.335 106.016C132.335 106.714 132.085 107.297 131.585 107.766C131.095 108.234 130.501 108.469 129.804 108.469C129.095 108.469 128.496 108.234 128.007 107.766C127.527 107.297 127.288 106.714 127.288 106.016ZM127.725 127V110.781H131.897V127H127.725ZM135.049 122.906C135.049 121.552 135.601 120.411 136.705 119.484C135.955 118.536 135.58 117.438 135.58 116.188C135.58 114.51 136.195 113.13 137.424 112.047C138.664 110.964 140.236 110.422 142.143 110.422C142.934 110.422 143.716 110.542 144.486 110.781H150.627V114.297H148.221C148.44 114.974 148.549 115.604 148.549 116.188C148.549 117.823 147.95 119.172 146.752 120.234C145.554 121.286 144.018 121.812 142.143 121.812C141.122 121.812 140.226 121.677 139.455 121.406C139.205 121.729 139.08 122.12 139.08 122.578C139.08 122.995 139.221 123.323 139.502 123.562C139.794 123.802 140.195 123.922 140.705 123.922H144.518C146.205 123.922 147.513 124.323 148.44 125.125C149.367 125.917 149.83 127.073 149.83 128.594C149.83 130.385 149.184 131.771 147.893 132.75C146.601 133.74 144.856 134.234 142.658 134.234C140.263 134.234 138.434 133.802 137.174 132.938C135.924 132.083 135.299 130.849 135.299 129.234C135.299 128.047 135.846 127.099 136.94 126.391C136.398 126.026 135.945 125.536 135.58 124.922C135.226 124.307 135.049 123.635 135.049 122.906ZM139.361 128.922C139.361 129.641 139.658 130.188 140.252 130.562C140.846 130.938 141.658 131.125 142.69 131.125C143.658 131.125 144.414 130.932 144.955 130.547C145.497 130.161 145.768 129.599 145.768 128.859C145.768 128.266 145.559 127.818 145.143 127.516C144.736 127.214 144.174 127.062 143.455 127.062H141.033C140.544 127.125 140.143 127.318 139.83 127.641C139.518 127.974 139.361 128.401 139.361 128.922ZM139.69 116.188C139.69 116.938 139.914 117.552 140.361 118.031C140.809 118.51 141.393 118.75 142.111 118.75C142.83 118.75 143.408 118.51 143.846 118.031C144.294 117.552 144.518 116.938 144.518 116.188C144.518 115.406 144.294 114.776 143.846 114.297C143.408 113.807 142.83 113.562 142.111 113.562C141.382 113.562 140.794 113.807 140.346 114.297C139.908 114.776 139.69 115.406 139.69 116.188ZM152.716 127V103.641H156.857V112.469C157.763 111.104 159.138 110.422 160.982 110.422C162.68 110.422 163.977 110.964 164.873 112.047C165.779 113.12 166.232 114.594 166.232 116.469V127H162.029V117.375C162.029 116.427 161.831 115.703 161.435 115.203C161.05 114.703 160.482 114.453 159.732 114.453C158.888 114.453 158.196 114.792 157.654 115.469C157.123 116.146 156.857 117.13 156.857 118.422V127H152.716ZM168.462 114.547V110.781H171.118L171.149 106.844H175.337L175.306 110.781H179.024V114.547H175.274L175.212 121.109C175.212 121.953 175.368 122.557 175.681 122.922C175.993 123.276 176.54 123.453 177.321 123.453C177.894 123.453 178.462 123.375 179.024 123.219V126.875C178.399 127.104 177.524 127.219 176.399 127.219C174.576 127.219 173.228 126.818 172.353 126.016C171.478 125.214 171.045 123.911 171.056 122.109L171.118 114.547H168.462ZM188.265 127V104.594H192.687V122.906H202V127H188.265ZM204.355 106.016C204.355 105.328 204.599 104.745 205.089 104.266C205.579 103.786 206.172 103.547 206.87 103.547C207.558 103.547 208.152 103.786 208.652 104.266C209.152 104.745 209.402 105.328 209.402 106.016C209.402 106.714 209.152 107.297 208.652 107.766C208.162 108.234 207.568 108.469 206.87 108.469C206.162 108.469 205.563 108.234 205.073 107.766C204.594 107.297 204.355 106.714 204.355 106.016ZM204.792 127V110.781H208.964V127H204.792ZM211.506 114.547V110.781H214.069V109.078C214.069 107.172 214.564 105.729 215.553 104.75C216.553 103.771 218.006 103.281 219.913 103.281C220.631 103.281 221.35 103.38 222.069 103.578V107.281C221.517 107.052 220.96 106.938 220.397 106.938C219.71 106.938 219.178 107.13 218.803 107.516C218.439 107.891 218.256 108.443 218.256 109.172V110.781H221.96V114.547H218.256V127H214.069V114.547H211.506ZM222.752 114.547V110.781H225.408L225.439 106.844H229.627L229.596 110.781H233.314V114.547H229.564L229.502 121.109C229.502 121.953 229.658 122.557 229.971 122.922C230.283 123.276 230.83 123.453 231.611 123.453C232.184 123.453 232.752 123.375 233.314 123.219V126.875C232.689 127.104 231.814 127.219 230.689 127.219C228.866 127.219 227.518 126.818 226.643 126.016C225.768 125.214 225.335 123.911 225.346 122.109L225.408 114.547H222.752ZM235.997 106.016C235.997 105.328 236.242 104.745 236.732 104.266C237.221 103.786 237.815 103.547 238.513 103.547C239.201 103.547 239.794 103.786 240.294 104.266C240.794 104.745 241.044 105.328 241.044 106.016C241.044 106.714 240.794 107.297 240.294 107.766C239.805 108.234 239.211 108.469 238.513 108.469C237.805 108.469 237.206 108.234 236.716 107.766C236.237 107.297 235.997 106.714 235.997 106.016ZM236.435 127V110.781H240.607V127H236.435ZM244.837 127V110.781H248.399L248.712 112.891C249.107 112.151 249.68 111.557 250.43 111.109C251.18 110.651 252.071 110.422 253.102 110.422C254.8 110.422 256.097 110.964 256.993 112.047C257.899 113.12 258.352 114.594 258.352 116.469V127H254.149V117.375C254.149 116.427 253.951 115.703 253.555 115.203C253.17 114.703 252.602 114.453 251.852 114.453C251.008 114.453 250.316 114.792 249.774 115.469C249.243 116.146 248.977 117.13 248.977 118.422V127H244.837ZM261.223 122.906C261.223 121.552 261.775 120.411 262.879 119.484C262.129 118.536 261.754 117.438 261.754 116.188C261.754 114.51 262.369 113.13 263.598 112.047C264.837 110.964 266.41 110.422 268.316 110.422C269.108 110.422 269.889 110.542 270.66 110.781H276.801V114.297H274.395C274.613 114.974 274.723 115.604 274.723 116.188C274.723 117.823 274.124 119.172 272.926 120.234C271.728 121.286 270.191 121.812 268.316 121.812C267.296 121.812 266.4 121.677 265.629 121.406C265.379 121.729 265.254 122.12 265.254 122.578C265.254 122.995 265.395 123.323 265.676 123.562C265.968 123.802 266.369 123.922 266.879 123.922H270.691C272.379 123.922 273.686 124.323 274.613 125.125C275.54 125.917 276.004 127.073 276.004 128.594C276.004 130.385 275.358 131.771 274.066 132.75C272.775 133.74 271.03 134.234 268.832 134.234C266.436 134.234 264.608 133.802 263.348 132.938C262.098 132.083 261.473 130.849 261.473 129.234C261.473 128.047 262.02 127.099 263.113 126.391C262.572 126.026 262.119 125.536 261.754 124.922C261.4 124.307 261.223 123.635 261.223 122.906ZM265.535 128.922C265.535 129.641 265.832 130.188 266.426 130.562C267.02 130.938 267.832 131.125 268.863 131.125C269.832 131.125 270.587 130.932 271.129 130.547C271.671 130.161 271.941 129.599 271.941 128.859C271.941 128.266 271.733 127.818 271.316 127.516C270.91 127.214 270.348 127.062 269.629 127.062H267.207C266.718 127.125 266.316 127.318 266.004 127.641C265.691 127.974 265.535 128.401 265.535 128.922ZM265.863 116.188C265.863 116.938 266.087 117.552 266.535 118.031C266.983 118.51 267.566 118.75 268.285 118.75C269.004 118.75 269.582 118.51 270.02 118.031C270.468 117.552 270.691 116.938 270.691 116.188C270.691 115.406 270.468 114.776 270.02 114.297C269.582 113.807 269.004 113.562 268.285 113.562C267.556 113.562 266.968 113.807 266.52 114.297C266.082 114.776 265.863 115.406 265.863 116.188Z" fill="white"/>
<circle cx="58.5" cy="111.75" r="4.5" fill="#E9B730"/>
<defs>
<filter id="filter0_i" x="52.5" y="0" width="255" height="72" filterUnits="userSpaceOnUse" color-interpolation-filters="sRGB">
<feFlood flood-opacity="0" result="BackgroundImageFix"/>
<feBlend mode="normal" in="SourceGraphic" in2="BackgroundImageFix" result="shape"/>
<feColorMatrix in="SourceAlpha" type="matrix" values="0 0 0 0 0 0 0 0 0 0 0 0 0 0 0 0 0 0 127 0" result="hardAlpha"/>
<feOffset dy="-1"/>
<feComposite in2="hardAlpha" operator="arithmetic" k2="-1" k3="1"/>
<feColorMatrix type="matrix" values="0 0 0 0 1 0 0 0 0 1 0 0 0 0 1 0 0 0 1 0"/>
<feBlend mode="normal" in2="shape" result="effect1_innerShadow"/>
</filter>
</defs>
</svg>
