<svg width="480" height="480" viewBox="0 0 480 480" fill="none" xmlns="http://www.w3.org/2000/svg">
<rect width="480" height="480" fill="#8F00FF"/>
<g filter="url(#filter0_i)">
<rect x="70" width="340" height="96" fill="#8F00FF"/>
</g>
<path d="M104.484 158L113.156 135.594H117.984L126.656 158H121.891L120.031 153.047H111.109L109.25 158H104.484ZM112.484 149.203H118.625L115.969 142.188L115.547 140.938L115.141 142.188L112.484 149.203ZM127.996 149.906C127.996 147.438 128.74 145.406 130.23 143.812C131.719 142.219 133.662 141.422 136.058 141.422C137.141 141.422 138.136 141.594 139.042 141.938C139.949 142.281 140.74 142.797 141.417 143.484C142.094 144.161 142.621 145.047 142.996 146.141C143.381 147.224 143.574 148.469 143.574 149.875V151.156H132.277C132.339 152.24 132.725 153.12 133.433 153.797C134.141 154.464 135.058 154.797 136.183 154.797C136.985 154.797 137.673 154.635 138.246 154.312C138.818 153.979 139.219 153.51 139.449 152.906H143.48C142.98 154.646 142.1 155.99 140.839 156.938C139.589 157.885 137.996 158.359 136.058 158.359C133.652 158.359 131.704 157.589 130.214 156.047C128.735 154.505 127.996 152.458 127.996 149.906ZM132.308 148.266H139.386C139.365 147.245 139.042 146.427 138.417 145.812C137.803 145.188 136.985 144.875 135.964 144.875C134.943 144.875 134.1 145.188 133.433 145.812C132.777 146.438 132.402 147.255 132.308 148.266ZM146.882 158V141.781H150.475L150.85 144.375C151.152 143.573 151.694 142.911 152.475 142.391C153.267 141.87 154.304 141.609 155.585 141.609V145.781C154.262 145.781 153.189 146.099 152.366 146.734C151.554 147.38 151.116 148.385 151.054 149.75V158H146.882ZM156.986 149.875C156.986 147.385 157.783 145.354 159.377 143.781C160.981 142.208 163.007 141.422 165.455 141.422C167.924 141.422 169.966 142.208 171.58 143.781C173.195 145.354 174.002 147.385 174.002 149.875C174.002 151.521 173.627 152.995 172.877 154.297C172.138 155.589 171.117 156.589 169.815 157.297C168.523 158.005 167.07 158.359 165.455 158.359C163.007 158.359 160.981 157.573 159.377 156C157.783 154.417 156.986 152.375 156.986 149.875ZM161.268 149.875C161.268 151.219 161.658 152.333 162.44 153.219C163.231 154.104 164.247 154.547 165.486 154.547C166.736 154.547 167.747 154.104 168.518 153.219C169.299 152.333 169.69 151.219 169.69 149.875C169.69 148.521 169.299 147.406 168.518 146.531C167.747 145.646 166.736 145.203 165.486 145.203C164.247 145.203 163.231 145.646 162.44 146.531C161.658 147.406 161.268 148.521 161.268 149.875ZM177.06 158V134.641H181.201V143.531C181.659 142.906 182.31 142.401 183.154 142.016C183.998 141.62 184.977 141.422 186.091 141.422C187.518 141.422 188.81 141.797 189.966 142.547C191.123 143.286 192.024 144.302 192.67 145.594C193.315 146.875 193.638 148.302 193.638 149.875C193.638 151.448 193.315 152.88 192.67 154.172C192.024 155.464 191.123 156.484 189.966 157.234C188.81 157.984 187.518 158.359 186.091 158.359C183.8 158.359 182.081 157.516 180.935 155.828L180.623 158H177.06ZM181.123 149.969C181.123 151.344 181.529 152.438 182.341 153.25C183.164 154.052 184.128 154.453 185.232 154.453C186.399 154.453 187.373 154.031 188.154 153.188C188.935 152.344 189.326 151.24 189.326 149.875C189.326 148.531 188.93 147.438 188.138 146.594C187.357 145.75 186.388 145.328 185.232 145.328C184.545 145.328 183.893 145.495 183.279 145.828C182.675 146.161 182.164 146.677 181.748 147.375C181.341 148.062 181.133 148.865 181.123 149.781V149.969ZM196.306 137.016C196.306 136.328 196.55 135.745 197.04 135.266C197.53 134.786 198.123 134.547 198.821 134.547C199.509 134.547 200.103 134.786 200.603 135.266C201.103 135.745 201.353 136.328 201.353 137.016C201.353 137.714 201.103 138.297 200.603 138.766C200.113 139.234 199.519 139.469 198.821 139.469C198.113 139.469 197.514 139.234 197.024 138.766C196.545 138.297 196.306 137.714 196.306 137.016ZM196.743 158V141.781H200.915V158H196.743ZM204.004 149.906C204.004 147.458 204.765 145.432 206.285 143.828C207.817 142.224 209.765 141.422 212.129 141.422C214.108 141.422 215.775 141.943 217.129 142.984C218.494 144.016 219.322 145.521 219.614 147.5H215.582C215.343 146.771 214.926 146.208 214.332 145.812C213.739 145.406 213.035 145.203 212.223 145.203C211.098 145.203 210.16 145.646 209.41 146.531C208.66 147.417 208.285 148.542 208.285 149.906C208.285 151.26 208.66 152.375 209.41 153.25C210.16 154.115 211.129 154.547 212.317 154.547C213.129 154.547 213.832 154.339 214.426 153.922C215.02 153.495 215.416 152.943 215.614 152.266H219.676C219.301 154.224 218.431 155.729 217.067 156.781C215.713 157.833 214.067 158.359 212.129 158.359C209.754 158.359 207.806 157.578 206.285 156.016C204.765 154.443 204.004 152.406 204.004 149.906ZM221.625 153.078H225.719C225.729 153.724 225.937 154.219 226.344 154.562C226.76 154.896 227.328 155.062 228.047 155.062C228.682 155.062 229.177 154.927 229.531 154.656C229.885 154.375 230.062 153.995 230.062 153.516C230.062 152.995 229.859 152.583 229.453 152.281C229.057 151.979 228.281 151.719 227.125 151.5C225.354 151.198 224.047 150.656 223.203 149.875C222.359 149.094 221.937 148.036 221.937 146.703C221.937 145.203 222.458 143.948 223.5 142.938C224.541 141.927 226.015 141.422 227.922 141.422C229.64 141.422 231.047 141.896 232.14 142.844C233.234 143.781 233.812 145.016 233.875 146.547H229.75C229.719 145.307 229.099 144.688 227.89 144.688C227.317 144.688 226.875 144.833 226.562 145.125C226.25 145.417 226.094 145.802 226.094 146.281C226.094 146.792 226.291 147.182 226.687 147.453C227.094 147.724 227.849 147.953 228.953 148.141C230.859 148.464 232.213 149.026 233.015 149.828C233.817 150.62 234.219 151.703 234.219 153.078C234.219 153.974 234.052 154.766 233.719 155.453C233.385 156.141 232.927 156.693 232.344 157.109C231.76 157.526 231.099 157.839 230.359 158.047C229.62 158.255 228.817 158.359 227.953 158.359C225.984 158.359 224.448 157.885 223.344 156.938C222.25 155.99 221.677 154.703 221.625 153.078Z" fill="white"/>
<circle cx="78" cy="149" r="6" fill="#E9B730"/>
<defs>
<filter id="filter0_i" x="70" y="0" width="340" height="96" filterUnits="userSpaceOnUse" color-interpolation-filters="sRGB">
<feFlood flood-opacity="0" result="BackgroundImageFix"/>
<feBlend mode="normal" in="SourceGraphic" in2="BackgroundImageFix" result="shape"/>
<feColorMatrix in="SourceAlpha" type="matrix" values="0 0 0 0 0 0 0 0 0 0 0 0 0 0 0 0 0 0 127 0" result="hardAlpha"/>
<feOffset dy="-1"/>
<feComposite in2="hardAlpha" operator="arithmetic" k2="-1" k3="1"/>
<feColorMatrix type="matrix" values="0 0 0 0 1 0 0 0 0 1 0 0 0 0 1 0 0 0 1 0"/>
<feBlend mode="normal" in2="shape" result="effect1_innerShadow"/>
</filter>
</defs>
</svg>
