<svg width="360" height="360" viewBox="0 0 360 360" fill="none" xmlns="http://www.w3.org/2000/svg">
<rect width="360" height="360" fill="#0052C1"/>
<g filter="url(#filter0_i)">
<rect x="52.5" width="255" height="72" fill="#0052C1"/>
</g>
<path d="M80.2656 127V104.594H87.4688C89.875 104.594 91.7865 105.266 93.2031 106.609C94.6302 107.943 95.3438 109.682 95.3438 111.828C95.3438 113.953 94.6302 115.693 93.2031 117.047C91.776 118.391 89.8646 119.062 87.4688 119.062H84.6562V127H80.2656ZM84.6562 114.938H87.4688C88.5208 114.938 89.349 114.667 89.9531 114.125C90.5573 113.573 90.8594 112.807 90.8594 111.828C90.8594 110.828 90.5573 110.057 89.9531 109.516C89.349 108.974 88.5208 108.703 87.4688 108.703H84.6562V114.938ZM97.9174 121.297V110.781H102.074V120.375C102.074 122.333 102.844 123.312 104.386 123.312C105.188 123.312 105.85 122.99 106.371 122.344C106.902 121.688 107.167 120.734 107.167 119.484V110.781H111.292V127H107.746L107.417 124.891C107.032 125.641 106.475 126.24 105.746 126.688C105.016 127.135 104.147 127.359 103.136 127.359C101.428 127.359 100.131 126.823 99.2455 125.75C98.3601 124.667 97.9174 123.182 97.9174 121.297ZM115.507 127V110.781H119.069L119.382 112.891C119.777 112.161 120.345 111.568 121.085 111.109C121.835 110.651 122.71 110.422 123.71 110.422C125.991 110.422 127.538 111.37 128.35 113.266C128.767 112.443 129.376 111.766 130.179 111.234C130.991 110.693 131.939 110.422 133.022 110.422C134.71 110.422 135.991 110.958 136.866 112.031C137.751 113.104 138.194 114.583 138.194 116.469V127H134.038V117.375C134.038 115.427 133.283 114.453 131.772 114.453C130.96 114.453 130.288 114.776 129.757 115.422C129.225 116.068 128.944 117.005 128.913 118.234V127H124.757V117.375C124.757 116.427 124.564 115.703 124.179 115.203C123.804 114.703 123.241 114.453 122.491 114.453C121.647 114.453 120.96 114.792 120.429 115.469C119.908 116.146 119.647 117.13 119.647 118.422V127H115.507ZM142.252 133.875V110.781H145.846L146.127 112.953C147.273 111.266 148.992 110.422 151.283 110.422C152.71 110.422 154.002 110.797 155.158 111.547C156.315 112.286 157.216 113.302 157.862 114.594C158.507 115.875 158.83 117.302 158.83 118.875C158.83 120.448 158.507 121.88 157.862 123.172C157.216 124.464 156.315 125.484 155.158 126.234C154.002 126.984 152.71 127.359 151.283 127.359C150.169 127.359 149.19 127.161 148.346 126.766C147.502 126.359 146.862 125.839 146.424 125.203V133.875H142.252ZM146.33 119C146.341 120.354 146.757 121.438 147.58 122.25C148.403 123.052 149.351 123.453 150.424 123.453C151.58 123.453 152.549 123.031 153.33 122.188C154.122 121.344 154.518 120.24 154.518 118.875C154.518 117.51 154.127 116.411 153.346 115.578C152.575 114.745 151.601 114.328 150.424 114.328C149.33 114.328 148.372 114.734 147.549 115.547C146.737 116.349 146.33 117.438 146.33 118.812V119ZM161.498 106.016C161.498 105.328 161.742 104.745 162.232 104.266C162.722 103.786 163.315 103.547 164.013 103.547C164.701 103.547 165.295 103.786 165.795 104.266C166.295 104.745 166.545 105.328 166.545 106.016C166.545 106.714 166.295 107.297 165.795 107.766C165.305 108.234 164.711 108.469 164.013 108.469C163.305 108.469 162.706 108.234 162.216 107.766C161.737 107.297 161.498 106.714 161.498 106.016ZM161.935 127V110.781H166.107V127H161.935ZM170.337 127V110.781H173.899L174.212 112.891C174.608 112.151 175.181 111.557 175.931 111.109C176.681 110.651 177.571 110.422 178.603 110.422C180.3 110.422 181.597 110.964 182.493 112.047C183.399 113.12 183.853 114.594 183.853 116.469V127H179.649V117.375C179.649 116.427 179.451 115.703 179.056 115.203C178.67 114.703 178.103 114.453 177.353 114.453C176.509 114.453 175.816 114.792 175.274 115.469C174.743 116.146 174.478 117.13 174.478 118.422V127H170.337ZM186.723 122.906C186.723 121.552 187.275 120.411 188.379 119.484C187.629 118.536 187.254 117.438 187.254 116.188C187.254 114.51 187.869 113.13 189.098 112.047C190.338 110.964 191.91 110.422 193.817 110.422C194.608 110.422 195.39 110.542 196.16 110.781H202.301V114.297H199.895C200.114 114.974 200.223 115.604 200.223 116.188C200.223 117.823 199.624 119.172 198.426 120.234C197.228 121.286 195.692 121.812 193.817 121.812C192.796 121.812 191.9 121.677 191.129 121.406C190.879 121.729 190.754 122.12 190.754 122.578C190.754 122.995 190.895 123.323 191.176 123.562C191.468 123.802 191.869 123.922 192.379 123.922H196.192C197.879 123.922 199.187 124.323 200.114 125.125C201.041 125.917 201.504 127.073 201.504 128.594C201.504 130.385 200.858 131.771 199.567 132.75C198.275 133.74 196.53 134.234 194.332 134.234C191.937 134.234 190.108 133.802 188.848 132.938C187.598 132.083 186.973 130.849 186.973 129.234C186.973 128.047 187.52 127.099 188.614 126.391C188.072 126.026 187.619 125.536 187.254 124.922C186.9 124.307 186.723 123.635 186.723 122.906ZM191.035 128.922C191.035 129.641 191.332 130.188 191.926 130.562C192.52 130.938 193.332 131.125 194.364 131.125C195.332 131.125 196.088 130.932 196.629 130.547C197.171 130.161 197.442 129.599 197.442 128.859C197.442 128.266 197.233 127.818 196.817 127.516C196.41 127.214 195.848 127.062 195.129 127.062H192.707C192.218 127.125 191.817 127.318 191.504 127.641C191.192 127.974 191.035 128.401 191.035 128.922ZM191.364 116.188C191.364 116.938 191.588 117.552 192.035 118.031C192.483 118.51 193.067 118.75 193.785 118.75C194.504 118.75 195.082 118.51 195.52 118.031C195.968 117.552 196.192 116.938 196.192 116.188C196.192 115.406 195.968 114.776 195.52 114.297C195.082 113.807 194.504 113.562 193.785 113.562C193.056 113.562 192.468 113.807 192.02 114.297C191.582 114.776 191.364 115.406 191.364 116.188ZM210.573 127V104.594H214.964V127H210.573ZM219.319 127V110.781H222.913L223.288 113.375C223.59 112.573 224.131 111.911 224.913 111.391C225.704 110.87 226.741 110.609 228.022 110.609V114.781C226.699 114.781 225.626 115.099 224.803 115.734C223.991 116.38 223.553 117.385 223.491 118.75V127H219.319ZM229.424 118.875C229.424 116.385 230.221 114.354 231.814 112.781C233.419 111.208 235.445 110.422 237.893 110.422C240.361 110.422 242.403 111.208 244.018 112.781C245.632 114.354 246.439 116.385 246.439 118.875C246.439 120.521 246.064 121.995 245.314 123.297C244.575 124.589 243.554 125.589 242.252 126.297C240.96 127.005 239.507 127.359 237.893 127.359C235.445 127.359 233.419 126.573 231.814 125C230.221 123.417 229.424 121.375 229.424 118.875ZM233.705 118.875C233.705 120.219 234.096 121.333 234.877 122.219C235.669 123.104 236.684 123.547 237.924 123.547C239.174 123.547 240.184 123.104 240.955 122.219C241.736 121.333 242.127 120.219 242.127 118.875C242.127 117.521 241.736 116.406 240.955 115.531C240.184 114.646 239.174 114.203 237.924 114.203C236.684 114.203 235.669 114.646 234.877 115.531C234.096 116.406 233.705 117.521 233.705 118.875ZM249.497 127V110.781H253.06L253.372 112.891C253.768 112.151 254.341 111.557 255.091 111.109C255.841 110.651 256.732 110.422 257.763 110.422C259.461 110.422 260.758 110.964 261.654 112.047C262.56 113.12 263.013 114.594 263.013 116.469V127H258.81V117.375C258.81 116.427 258.612 115.703 258.216 115.203C257.831 114.703 257.263 114.453 256.513 114.453C255.669 114.453 254.977 114.792 254.435 115.469C253.904 116.146 253.638 117.13 253.638 118.422V127H249.497Z" fill="white"/>
<circle cx="58.5" cy="111.75" r="4.5" fill="#E9B730"/>
<defs>
<filter id="filter0_i" x="52.5" y="0" width="255" height="72" filterUnits="userSpaceOnUse" color-interpolation-filters="sRGB">
<feFlood flood-opacity="0" result="BackgroundImageFix"/>
<feBlend mode="normal" in="SourceGraphic" in2="BackgroundImageFix" result="shape"/>
<feColorMatrix in="SourceAlpha" type="matrix" values="0 0 0 0 0 0 0 0 0 0 0 0 0 0 0 0 0 0 127 0" result="hardAlpha"/>
<feOffset dy="-1"/>
<feComposite in2="hardAlpha" operator="arithmetic" k2="-1" k3="1"/>
<feColorMatrix type="matrix" values="0 0 0 0 1 0 0 0 0 1 0 0 0 0 1 0 0 0 1 0"/>
<feBlend mode="normal" in2="shape" result="effect1_innerShadow"/>
</filter>
</defs>
</svg>
