<svg width="480" height="480" viewBox="0 0 480 480" fill="none" xmlns="http://www.w3.org/2000/svg">
<rect width="480" height="480" fill="#22356F"/>
<g filter="url(#filter0_i)">
<rect x="70" width="340" height="96" fill="#22356F"/>
</g>
<path d="M106.266 158V135.594H113.469C115.875 135.594 117.786 136.266 119.203 137.609C120.63 138.943 121.344 140.682 121.344 142.828C121.344 144.953 120.63 146.693 119.203 148.047C117.776 149.391 115.865 150.062 113.469 150.062H110.656V158H106.266ZM110.656 145.938H113.469C114.521 145.938 115.349 145.667 115.953 145.125C116.557 144.573 116.859 143.807 116.859 142.828C116.859 141.828 116.557 141.057 115.953 140.516C115.349 139.974 114.521 139.703 113.469 139.703H110.656V145.938ZM124.136 158V134.641H128.277V143.469C129.183 142.104 130.558 141.422 132.402 141.422C134.1 141.422 135.397 141.964 136.292 143.047C137.199 144.12 137.652 145.594 137.652 147.469V158H133.449V148.375C133.449 147.427 133.251 146.703 132.855 146.203C132.469 145.703 131.902 145.453 131.152 145.453C130.308 145.453 129.615 145.792 129.074 146.469C128.542 147.146 128.277 148.13 128.277 149.422V158H124.136ZM139.679 141.781H144.163L147.335 151.734L147.647 153.141L147.975 151.734L151.147 141.781H155.647L147.304 164.875H142.975L145.444 157.812L139.679 141.781ZM156.955 153.078H161.049C161.059 153.724 161.268 154.219 161.674 154.562C162.091 154.896 162.658 155.062 163.377 155.062C164.013 155.062 164.507 154.927 164.862 154.656C165.216 154.375 165.393 153.995 165.393 153.516C165.393 152.995 165.19 152.583 164.783 152.281C164.388 151.979 163.612 151.719 162.455 151.5C160.684 151.198 159.377 150.656 158.533 149.875C157.69 149.094 157.268 148.036 157.268 146.703C157.268 145.203 157.789 143.948 158.83 142.938C159.872 141.927 161.346 141.422 163.252 141.422C164.971 141.422 166.377 141.896 167.471 142.844C168.565 143.781 169.143 145.016 169.205 146.547H165.08C165.049 145.307 164.429 144.688 163.221 144.688C162.648 144.688 162.205 144.833 161.893 145.125C161.58 145.417 161.424 145.802 161.424 146.281C161.424 146.792 161.622 147.182 162.018 147.453C162.424 147.724 163.179 147.953 164.283 148.141C166.19 148.464 167.544 149.026 168.346 149.828C169.148 150.62 169.549 151.703 169.549 153.078C169.549 153.974 169.382 154.766 169.049 155.453C168.716 156.141 168.257 156.693 167.674 157.109C167.091 157.526 166.429 157.839 165.69 158.047C164.95 158.255 164.148 158.359 163.283 158.359C161.315 158.359 159.778 157.885 158.674 156.938C157.58 155.99 157.007 154.703 156.955 153.078ZM172.216 137.016C172.216 136.328 172.461 135.745 172.951 135.266C173.44 134.786 174.034 134.547 174.732 134.547C175.42 134.547 176.013 134.786 176.513 135.266C177.013 135.745 177.263 136.328 177.263 137.016C177.263 137.714 177.013 138.297 176.513 138.766C176.024 139.234 175.43 139.469 174.732 139.469C174.024 139.469 173.425 139.234 172.935 138.766C172.456 138.297 172.216 137.714 172.216 137.016ZM172.654 158V141.781H176.826V158H172.654ZM179.915 149.906C179.915 147.458 180.675 145.432 182.196 143.828C183.728 142.224 185.675 141.422 188.04 141.422C190.019 141.422 191.686 141.943 193.04 142.984C194.405 144.016 195.233 145.521 195.524 147.5H191.493C191.254 146.771 190.837 146.208 190.243 145.812C189.649 145.406 188.946 145.203 188.134 145.203C187.009 145.203 186.071 145.646 185.321 146.531C184.571 147.417 184.196 148.542 184.196 149.906C184.196 151.26 184.571 152.375 185.321 153.25C186.071 154.115 187.04 154.547 188.228 154.547C189.04 154.547 189.743 154.339 190.337 153.922C190.931 153.495 191.326 152.943 191.524 152.266H195.587C195.212 154.224 194.342 155.729 192.978 156.781C191.623 157.833 189.978 158.359 188.04 158.359C185.665 158.359 183.717 157.578 182.196 156.016C180.675 154.443 179.915 152.406 179.915 149.906ZM197.754 153.688C197.754 152.917 197.874 152.245 198.114 151.672C198.364 151.089 198.723 150.609 199.192 150.234C199.66 149.859 200.181 149.562 200.754 149.344C201.338 149.115 202.009 148.938 202.77 148.812L206.973 148.047V147.438C206.973 146.646 206.775 146.036 206.379 145.609C205.994 145.182 205.431 144.969 204.692 144.969C203.994 144.969 203.416 145.167 202.957 145.562C202.499 145.958 202.27 146.479 202.27 147.125H198.239C198.332 145.438 198.957 144.068 200.114 143.016C201.28 141.953 202.806 141.422 204.692 141.422C206.671 141.422 208.239 141.927 209.395 142.938C210.551 143.938 211.129 145.406 211.129 147.344V158H207.582L207.317 156.016C206.296 157.578 204.749 158.359 202.676 158.359C201.218 158.359 200.03 157.938 199.114 157.094C198.207 156.25 197.754 155.115 197.754 153.688ZM201.91 153.328C201.91 153.818 202.077 154.208 202.41 154.5C202.744 154.781 203.207 154.922 203.801 154.922C204.322 154.922 204.812 154.797 205.27 154.547C205.739 154.286 206.114 153.922 206.395 153.453C206.78 152.87 206.973 152.156 206.973 151.312V150.828L203.739 151.5C203.145 151.635 202.692 151.844 202.379 152.125C202.067 152.406 201.91 152.807 201.91 153.328ZM215.015 158V134.641H219.187V158H215.015ZM106.266 196V173.594H110.656V182.344H120.25V173.594H124.672V196H120.25V186.469H110.656V196H106.266ZM127.808 187.906C127.808 185.438 128.553 183.406 130.042 181.812C131.532 180.219 133.475 179.422 135.871 179.422C136.954 179.422 137.949 179.594 138.855 179.938C139.761 180.281 140.553 180.797 141.23 181.484C141.907 182.161 142.433 183.047 142.808 184.141C143.193 185.224 143.386 186.469 143.386 187.875V189.156H132.089C132.152 190.24 132.537 191.12 133.246 191.797C133.954 192.464 134.871 192.797 135.996 192.797C136.798 192.797 137.485 192.635 138.058 192.312C138.631 191.979 139.032 191.51 139.261 190.906H143.292C142.792 192.646 141.912 193.99 140.652 194.938C139.402 195.885 137.808 196.359 135.871 196.359C133.464 196.359 131.516 195.589 130.027 194.047C128.548 192.505 127.808 190.458 127.808 187.906ZM132.121 186.266H139.199C139.178 185.245 138.855 184.427 138.23 183.812C137.615 183.188 136.798 182.875 135.777 182.875C134.756 182.875 133.912 183.188 133.246 183.812C132.589 184.438 132.214 185.255 132.121 186.266ZM145.71 191.688C145.71 190.917 145.83 190.245 146.069 189.672C146.319 189.089 146.679 188.609 147.147 188.234C147.616 187.859 148.137 187.562 148.71 187.344C149.293 187.115 149.965 186.938 150.725 186.812L154.929 186.047V185.438C154.929 184.646 154.731 184.036 154.335 183.609C153.949 183.182 153.387 182.969 152.647 182.969C151.949 182.969 151.371 183.167 150.913 183.562C150.455 183.958 150.225 184.479 150.225 185.125H146.194C146.288 183.438 146.913 182.068 148.069 181.016C149.236 179.953 150.762 179.422 152.647 179.422C154.626 179.422 156.194 179.927 157.35 180.938C158.507 181.938 159.085 183.406 159.085 185.344V196H155.538L155.272 194.016C154.251 195.578 152.705 196.359 150.632 196.359C149.173 196.359 147.986 195.938 147.069 195.094C146.163 194.25 145.71 193.115 145.71 191.688ZM149.866 191.328C149.866 191.818 150.033 192.208 150.366 192.5C150.699 192.781 151.163 192.922 151.757 192.922C152.277 192.922 152.767 192.797 153.225 192.547C153.694 192.286 154.069 191.922 154.35 191.453C154.736 190.87 154.929 190.156 154.929 189.312V188.828L151.694 189.5C151.1 189.635 150.647 189.844 150.335 190.125C150.022 190.406 149.866 190.807 149.866 191.328ZM162.971 196V172.641H167.143V196H162.971ZM169.654 183.547V179.781H172.31L172.341 175.844H176.529L176.498 179.781H180.216V183.547H176.466L176.404 190.109C176.404 190.953 176.56 191.557 176.873 191.922C177.185 192.276 177.732 192.453 178.513 192.453C179.086 192.453 179.654 192.375 180.216 192.219V195.875C179.591 196.104 178.716 196.219 177.591 196.219C175.768 196.219 174.42 195.818 173.545 195.016C172.67 194.214 172.237 192.911 172.248 191.109L172.31 183.547H169.654ZM183.306 196V172.641H187.446V181.469C188.353 180.104 189.728 179.422 191.571 179.422C193.269 179.422 194.566 179.964 195.462 181.047C196.368 182.12 196.821 183.594 196.821 185.469V196H192.618V186.375C192.618 185.427 192.42 184.703 192.024 184.203C191.639 183.703 191.071 183.453 190.321 183.453C189.478 183.453 188.785 183.792 188.243 184.469C187.712 185.146 187.446 186.13 187.446 187.422V196H183.306Z" fill="white"/>
<circle cx="78" cy="149" r="6" fill="#E9B730"/>
<defs>
<filter id="filter0_i" x="70" y="0" width="340" height="96" filterUnits="userSpaceOnUse" color-interpolation-filters="sRGB">
<feFlood flood-opacity="0" result="BackgroundImageFix"/>
<feBlend mode="normal" in="SourceGraphic" in2="BackgroundImageFix" result="shape"/>
<feColorMatrix in="SourceAlpha" type="matrix" values="0 0 0 0 0 0 0 0 0 0 0 0 0 0 0 0 0 0 127 0" result="hardAlpha"/>
<feOffset dy="-1"/>
<feComposite in2="hardAlpha" operator="arithmetic" k2="-1" k3="1"/>
<feColorMatrix type="matrix" values="0 0 0 0 1 0 0 0 0 1 0 0 0 0 1 0 0 0 1 0"/>
<feBlend mode="normal" in2="shape" result="effect1_innerShadow"/>
</filter>
</defs>
</svg>
